<?xml version="1.0" encoding="UTF-8"?>
<svg width="1200pt" height="300" version="1.1" viewBox="0 0 600 600" xmlns="http://www.w3.org/2000/svg">
 <text x="213.8" y="391.3" font-family="Gill Sans" font-size="300" fill="white">VibeLang</text>
 <g>
    <path d="M -646.3 290.5 h 30 v 30 h -30 z" fill="white"/>
    <path d="M -1006.3 260.5 h 60 v 30 h -60 z" fill="white"/>
    <path fill="white" d="M -946.3 230.5 v 30 h 180 v 30 h 30 v 30 h 30 v 30 h 30 v 30 h 210 v -30 h 30 v -30 h 30 v -30 h 60 v 30 h 30 v 30 h 210 v -30 h 30 v -30 h 30 v -60 z m 390 120 h -30 v -30 h -30 v 30 h -30 v -30 h -30 v -30 h -30 v -30 h 30 v 30 h 30 v -30 h 30 v 30 h 30 v 30 h 30 z m 360 -30 h -30 v -30 h -30 v 30 h -30 v -30 h -30 v -30 h 30 v 30 h 30 v -30 h 30 v 30 h 30 z"/>
</g>
</svg>
